<?xml version="1.0" encoding="UTF-8"?>
<svg width="157.82mm" height="34.439mm" version="1.1" viewBox="0 0 157.82 34.439" xmlns="http://www.w3.org/2000/svg">
 <defs>
  <clipPath id="clipPath3">
   <path transform="translate(-76.817 -16.117)" d="m0 132h534v-132h-534z"/>
  </clipPath>
  <clipPath id="clipPath5">
   <path transform="translate(-34.874 -86.022)" d="m0 132h534v-132h-534z"/>
  </clipPath>
  <clipPath id="clipPath7">
   <path transform="translate(-112.06 -97.751)" d="m0 132h534v-132h-534z"/>
  </clipPath>
  <clipPath id="clipPath9">
   <path transform="translate(-60.13 -78.807)" d="m0 132h534v-132h-534z"/>
  </clipPath>
  <clipPath id="clipPath11">
   <path transform="translate(-79.522 -28.295)" d="m0 132h534v-132h-534z"/>
  </clipPath>
  <clipPath id="clipPath13">
   <path transform="translate(-126.12 -64.423)" d="m0 132h534v-132h-534z"/>
  </clipPath>
  <clipPath id="clipPath15">
   <path transform="translate(-162.81 -47.715)" d="m0 132h534v-132h-534z"/>
  </clipPath>
  <clipPath id="clipPath17">
   <path transform="translate(-208.98 -49.199)" d="m0 132h534v-132h-534z"/>
  </clipPath>
  <clipPath id="clipPath19">
   <path transform="translate(-244.46 -49.199)" d="m0 132h534v-132h-534z"/>
  </clipPath>
  <clipPath id="clipPath21">
   <path transform="translate(-279.92 -49.199)" d="m0 132h534v-132h-534z"/>
  </clipPath>
  <clipPath id="clipPath23">
   <path transform="translate(-300.9 -69.789)" d="m0 132h534v-132h-534z"/>
  </clipPath>
  <clipPath id="clipPath25">
   <path d="m0 132h534v-132h-534z"/>
  </clipPath>
  <clipPath id="clipPath27">
   <path d="m0 132h534v-132h-534z"/>
  </clipPath>
  <clipPath id="clipPath29">
   <path transform="translate(-367.97 -49.093)" d="m0 132h534v-132h-534z"/>
  </clipPath>
  <clipPath id="clipPath31">
   <path transform="translate(-388.75 -46.682)" d="m0 132h534v-132h-534z"/>
  </clipPath>
  <clipPath id="clipPath33">
   <path d="m0 132h534v-132h-534z"/>
  </clipPath>
  <clipPath id="clipPath35">
   <path transform="translate(-473.92 -70.398)" d="m0 132h534v-132h-534z"/>
  </clipPath>
 </defs>
 <g transform="matrix(.26458 0 0 .26458 -10.405 -6.6203)" fill="#fff">
  <path transform="matrix(1.3333,0,0,-1.3333,102.42,154.51)" d="M 0,0 C 0.289,0.145 0.554,0.302 0.796,0.469 0.466,0.474 0.137,0.482 -0.191,0.494 -0.135,0.328 -0.075,0.162 0,0" clip-path="url(#clipPath3)"/>
  <path transform="matrix(1.3333,0,0,-1.3333,46.498,61.304)" d="M 0,0 C -0.019,-0.68 0.068,-1.31 0.244,-1.893 0.57,-1.188 0.912,-0.494 1.27,0.191 0.865,0.19 0.446,0.141 0,0" clip-path="url(#clipPath5)"/>
  <path transform="matrix(1.3333,0,0,-1.3333,149.41,45.665)" d="m0 0c0.224 0.072 0.368 0.318 0.39 0.899-1.904-0.077 8e-3 0.695 0 1.353-0.821-0.081-1.579-0.237-2.296-0.444 0.651-0.586 1.288-1.188 1.906-1.808" clip-path="url(#clipPath7)"/>
  <path transform="matrix(1.3333,0,0,-1.3333,80.173,70.924)" d="M 0,0 C 0.077,0.131 0.167,0.244 0.253,0.362 0.109,0.317 -0.011,0.214 0,0" clip-path="url(#clipPath9)"/>
 </g>
 <path transform="matrix(.35276 0 0 -.35276 34.087 17.219)" d="m-47.811 47.811c-26.406 0-47.811-21.406-47.811-47.811 0-26.405 21.405-47.811 47.811-47.811 26.405 0 47.811 21.406 47.811 47.811 0 26.405-21.406 47.811-47.811 47.811z" clip-path="url(#clipPath13)" fill="#fff"/>
 <path transform="matrix(.35276 0 0 -.35276 17.648 29.963)" d="m0 0c-0.883 10.439 3.545 20.691 3.157 31.569 4.622 5.151 10.612 8.93 10.823 18.492 6.387 4.289 9.72 11.63 14.433 17.588 1.394 1.101 2.421-0.857 3.157 0.902-0.334 0.718-2.211-0.104-1.804 1.353 0.998 0.447 2.171-0.641 2.767-0.448-0.618 0.62-1.255 1.222-1.906 1.808-9.211-2.659-10.526-14.888-19.803-15.791 0.09 1.713 2.796 0.811 2.705 2.705-0.504 1.422-0.039 1.019 0 2.707-2.051 0.955-2.551 3.459-4.508 4.51-4.916-0.104-8.326-1.124-8.119-4.51 0.186-2.977 5.078-3.145 4.961-6.766-5.745-6.466-20.654 2.739-25.003-3.245 0.33 0.102 0.798-0.147 0.199-0.362 0.203-2.315 2.046 2.177 3.156 0.45 0.14-1.042-1.303-0.501-1.353-1.353 5.795 2.967 11.176-4.013 18.943-1.804 0.92-8.226-6.31-4.402-11.276-3.157-2.918 0.731-6.269 0.564-8.568 1.353-1.877 0.645-3.641 2.769-5.863 3.608-3.361 1.272-7.479 0.938-10.373 2.255-3.581 1.627-5.716 6.057-9.103 6.054-0.358-0.686-0.7-1.38-1.026-2.084 1.228-4.07 6.815-5.904 11.481-7.127 8.8-5.33 17.851-10.409 27.511-14.883 1.16-12.673-1.24-23.785 2.256-33.374-0.651-1.005-1.223-2.083-1.805-3.157 2.779-2.532 1.06-6.014 2.065-8.977 0.328-0.011 0.657-0.02 0.987-0.025 3.721 2.57 2.239 7.797 1.909 11.709" clip-path="url(#clipPath11)" fill="#ed1c24"/>
 <g transform="matrix(.26458 0 0 .26458 -10.405 -6.6203)">
  <path transform="matrix(1.3333,0,0,-1.3333,217.08,112.38)" d="m0 0c-2.915 1.625-5.212 3.869-6.89 6.73-1.678 2.864-2.517 6.079-2.517 9.647s0.839 6.784 2.517 9.646 3.975 5.106 6.89 6.731 6.191 2.438 9.832 2.438c2.685 0 5.158-0.432 7.42-1.298 2.261-0.867 4.186-2.147 5.776-3.843l-1.695-1.748c-2.969 2.931-6.767 4.398-11.395 4.398-3.11 0-5.936-0.707-8.481-2.12-2.544-1.413-4.54-3.365-5.988-5.856-1.449-2.491-2.173-5.274-2.173-8.348s0.724-5.856 2.173-8.348c1.448-2.49 3.444-4.443 5.988-5.855 2.545-1.414 5.371-2.121 8.481-2.121 4.592 0 8.391 1.484 11.395 4.453l1.695-1.75c-1.59-1.695-3.524-2.986-5.802-3.869-2.28-0.883-4.745-1.325-7.394-1.325-3.641 0-6.917 0.813-9.832 2.438" clip-path="url(#clipPath15)"/>
  <path transform="matrix(1.3333,0,0,-1.3333,278.64,110.4)" d="m0 0c1.678 0.988 3.002 2.367 3.975 4.134 0.971 1.766 1.457 3.78 1.457 6.042 0 2.261-0.486 4.275-1.457 6.042-0.973 1.766-2.297 3.144-3.975 4.134-1.679 0.988-3.578 1.484-5.698 1.484s-4.02-0.496-5.698-1.484c-1.678-0.99-3.003-2.368-3.974-4.134-0.973-1.767-1.458-3.781-1.458-6.042 0-2.262 0.485-4.276 1.458-6.042 0.971-1.767 2.296-3.146 3.974-4.134 1.678-0.99 3.578-1.484 5.698-1.484s4.019 0.494 5.698 1.484m-12.773-2.067c-2.103 1.201-3.755 2.87-4.956 5.008-1.202 2.137-1.802 4.549-1.802 7.235 0 2.684 0.6 5.095 1.802 7.234 1.201 2.138 2.853 3.807 4.956 5.009 2.101 1.2 4.46 1.802 7.075 1.802 2.614 0 4.973-0.602 7.076-1.802 2.101-1.202 3.754-2.871 4.955-5.009 1.201-2.139 1.802-4.55 1.802-7.234 0-2.686-0.601-5.098-1.802-7.235-1.201-2.138-2.854-3.807-4.955-5.008-2.103-1.203-4.462-1.802-7.076-1.802-2.615 0-4.974 0.599-7.075 1.802" clip-path="url(#clipPath17)"/>
  <path transform="matrix(1.3333,0,0,-1.3333,325.95,110.4)" d="m0 0c1.695 0.988 3.029 2.367 4.001 4.134 0.972 1.766 1.458 3.78 1.458 6.042 0 2.261-0.486 4.275-1.458 6.042-0.972 1.766-2.306 3.144-4.001 4.134-1.696 0.988-3.604 1.484-5.725 1.484-2.12 0-4.019-0.496-5.697-1.484-1.679-0.99-3.004-2.368-3.974-4.134-0.973-1.767-1.458-3.781-1.458-6.042 0-2.262 0.485-4.276 1.458-6.042 0.97-1.767 2.295-3.146 3.974-4.134 1.678-0.99 3.577-1.484 5.697-1.484 2.121 0 4.029 0.494 5.725 1.484m1.431 22.419c2.084-1.202 3.718-2.862 4.902-4.982 1.184-2.121 1.775-4.541 1.775-7.261 0-2.721-0.591-5.151-1.775-7.287-1.184-2.139-2.818-3.799-4.902-4.983-2.085-1.183-4.417-1.775-6.996-1.775-2.438 0-4.647 0.574-6.625 1.723-1.98 1.147-3.517 2.746-4.612 4.796v-16.589h-2.649v37.948h2.544v-6.519c1.094 2.119 2.64 3.772 4.637 4.955 1.996 1.184 4.231 1.776 6.705 1.776 2.579 0 4.911-0.602 6.996-1.802" clip-path="url(#clipPath19)"/>
  <path transform="matrix(1.3333,0,0,-1.3333,373.22,110.4)" d="m0 0c1.695 0.988 3.029 2.367 4.001 4.134 0.972 1.766 1.458 3.78 1.458 6.042 0 2.261-0.486 4.275-1.458 6.042-0.972 1.766-2.306 3.144-4.001 4.134-1.696 0.988-3.604 1.484-5.725 1.484-2.12 0-4.019-0.496-5.697-1.484-1.679-0.99-3.004-2.368-3.974-4.134-0.973-1.767-1.458-3.781-1.458-6.042 0-2.262 0.485-4.276 1.458-6.042 0.97-1.767 2.295-3.146 3.974-4.134 1.678-0.99 3.577-1.484 5.697-1.484 2.121 0 4.029 0.494 5.725 1.484m1.431 22.419c2.084-1.202 3.718-2.862 4.902-4.982 1.184-2.121 1.775-4.541 1.775-7.261 0-2.721-0.591-5.151-1.775-7.287-1.184-2.139-2.818-3.799-4.902-4.983-2.085-1.183-4.417-1.775-6.996-1.775-2.438 0-4.647 0.574-6.625 1.723-1.98 1.147-3.517 2.746-4.612 4.796v-16.589h-2.649v37.948h2.544v-6.519c1.094 2.119 2.64 3.772 4.637 4.955 1.996 1.184 4.231 1.776 6.705 1.776 2.579 0 4.911-0.602 6.996-1.802" clip-path="url(#clipPath21)"/>
  <path transform="matrix(1.3333,0,0,-1.3333,401.2,82.948)" d="m0 0c-1.555-0.865-2.801-2.085-3.736-3.656-0.937-1.573-1.476-3.349-1.617-5.326h21.201c-0.107 1.977-0.637 3.744-1.59 5.298-0.954 1.555-2.209 2.774-3.764 3.659-1.555 0.882-3.304 1.324-5.247 1.324s-3.692-0.434-5.247-1.299m18.392-11.051h-23.797c0.07-2.154 0.617-4.072 1.642-5.75s2.411-2.976 4.16-3.895 3.719-1.378 5.911-1.378c1.801 0 3.471 0.326 5.007 0.98 1.538 0.655 2.818 1.617 3.843 2.889l1.537-1.749c-1.201-1.449-2.712-2.562-4.531-3.339-1.82-0.777-3.79-1.166-5.91-1.166-2.756 0-5.212 0.6-7.366 1.802-2.157 1.201-3.843 2.862-5.062 4.981-1.22 2.121-1.829 4.541-1.829 7.262 0 2.685 0.574 5.096 1.723 7.234 1.147 2.138 2.729 3.807 4.744 5.009 2.014 1.2 4.274 1.802 6.783 1.802s4.761-0.592 6.758-1.776c1.996-1.183 3.568-2.835 4.717-4.955 1.148-2.121 1.722-4.523 1.722-7.209z" clip-path="url(#clipPath23)"/>
  <path transform="matrix(1.3333,0,0,-1.3333,0,176)" d="m327.24 84.868h2.649v-39.326h-2.649z" clip-path="url(#clipPath25)"/>
  <path transform="matrix(1.3333,0,0,-1.3333,0,176)" d="m340.76 73.208h2.649v-27.666h-2.649zm-0.212 7.341c-0.424 0.405-0.637 0.909-0.637 1.51 0 0.6 0.213 1.113 0.637 1.537s0.935 0.636 1.537 0.636c0.6 0 1.112-0.204 1.537-0.609 0.424-0.407 0.636-0.91 0.636-1.512 0-0.6-0.212-1.112-0.636-1.536-0.425-0.425-0.937-0.636-1.537-0.636-0.602 0-1.113 0.204-1.537 0.61" clip-path="url(#clipPath27)"/>
  <path transform="matrix(1.3333,0,0,-1.3333,490.63,110.54)" d="m0 0c1.607 1.06 2.817 2.597 3.631 4.611v5.195h-9.435c-2.72 0-4.69-0.496-5.909-1.485-1.219-0.99-1.828-2.349-1.828-4.081 0-1.802 0.671-3.224 2.014-4.266 1.342-1.043 3.233-1.564 5.671-1.564 2.296 0 4.248 0.53 5.856 1.59m3.524 21.704c1.837-1.75 2.756-4.32 2.756-7.712v-17.543h-2.544v4.929c-0.882-1.625-2.173-2.889-3.869-3.789-1.695-0.902-3.727-1.352-6.095-1.352-3.074 0-5.503 0.724-7.287 2.173-1.785 1.448-2.676 3.357-2.676 5.724 0 2.297 0.821 4.161 2.464 5.592s4.267 2.146 7.871 2.146h9.487v2.227c0 2.578-0.698 4.539-2.094 5.882-1.396 1.342-3.436 2.014-6.121 2.014-1.838 0-3.596-0.318-5.273-0.954-1.679-0.636-3.101-1.483-4.267-2.544l-1.325 1.908c1.378 1.237 3.038 2.199 4.981 2.889 1.944 0.689 3.976 1.033 6.096 1.033 3.427 0 6.059-0.875 7.896-2.623" clip-path="url(#clipPath29)"/>
 </g>
 <g transform="matrix(.26458 0 0 .26458 -10.405 -6.6203)" fill="#ed1c24">
  <path transform="matrix(1.3333,0,0,-1.3333,518.33,113.76)" d="m0 0c-2.456 0.936-4.372 2.146-5.75 3.631l1.219 2.014c1.306-1.379 3.065-2.5 5.273-3.366 2.208-0.867 4.531-1.299 6.97-1.299 3.533 0 6.201 0.671 8.003 2.014s2.703 3.092 2.703 5.247c0 1.661-0.478 2.986-1.431 3.976-0.954 0.988-2.138 1.748-3.551 2.278-1.414 0.53-3.322 1.077-5.724 1.644-2.722 0.67-4.902 1.324-6.546 1.961-1.643 0.635-3.039 1.616-4.187 2.941-1.148 1.324-1.722 3.1-1.722 5.326 0 1.803 0.476 3.453 1.43 4.955 0.955 1.502 2.413 2.695 4.374 3.578 1.96 0.883 4.407 1.326 7.339 1.326 2.049 0 4.064-0.301 6.043-0.902 1.978-0.601 3.692-1.414 5.141-2.437l-1.007-2.174c-1.484 1.025-3.119 1.803-4.902 2.332-1.785 0.53-3.543 0.795-5.275 0.795-3.426 0-6.024-0.689-7.79-2.067-1.767-1.377-2.65-3.162-2.65-5.353 0-1.66 0.477-2.986 1.431-3.975 0.954-0.99 2.137-1.749 3.55-2.279 1.413-0.529 3.34-1.096 5.778-1.695 2.72-0.672 4.893-1.325 6.519-1.961 1.624-0.637 3.012-1.6 4.16-2.889 1.148-1.291 1.723-3.03 1.723-5.221 0-1.802-0.486-3.445-1.458-4.929s-2.464-2.668-4.478-3.551-4.488-1.324-7.42-1.324c-2.721 0-5.309 0.467-7.765 1.404" clip-path="url(#clipPath31)"/>
  <path transform="matrix(1.3333,0,0,-1.3333,0,176)" d="m417.87 73.208h2.649v-27.666h-2.649zm-0.212 7.341c-0.424 0.405-0.637 0.909-0.637 1.51 0 0.6 0.213 1.113 0.637 1.537s0.936 0.636 1.537 0.636c0.6 0 1.113-0.204 1.537-0.609 0.424-0.407 0.636-0.91 0.636-1.512 0-0.6-0.212-1.112-0.636-1.536-0.424-0.425-0.937-0.636-1.537-0.636-0.601 0-1.113 0.204-1.537 0.61" clip-path="url(#clipPath33)"/>
  <path transform="matrix(1.3333,0,0,-1.3333,631.89,82.135)" d="m0 0c1.961-2.014 2.941-4.911 2.941-8.691v-16.165h-2.649v15.953c0 3.108-0.761 5.475-2.279 7.102-1.52 1.624-3.64 2.438-6.361 2.438-3.109 0-5.574-0.973-7.393-2.915-1.821-1.945-2.73-4.558-2.73-7.845v-14.733h-2.649v15.953c0 3.108-0.761 5.475-2.279 7.102-1.52 1.624-3.64 2.438-6.361 2.438-3.109 0-5.574-0.973-7.393-2.915-1.82-1.945-2.73-4.558-2.73-7.845v-14.733h-2.649v27.666h2.544v-5.937c0.918 1.943 2.287 3.453 4.107 4.532 1.819 1.077 3.984 1.616 6.492 1.616 2.509 0 4.638-0.565 6.387-1.695 1.749-1.132 2.994-2.792 3.736-4.982 0.919 2.049 2.359 3.674 4.32 4.876 1.961 1.2 4.249 1.801 6.864 1.801 3.427 0 6.121-1.006 8.082-3.021" clip-path="url(#clipPath35)"/>
 </g>
 <path transform="matrix(.35276 0 0 -.35276 34.087 17.219)" d="m0 0c0-26.405-21.406-47.811-47.811-47.811-26.406 0-47.811 21.406-47.811 47.811s21.405 47.811 47.811 47.811c26.405 0 47.811-21.406 47.811-47.811z" clip-path="url(#clipPath13)" fill="none" stroke="#ed1c24" stroke-miterlimit="10" stroke-width="2"/>
</svg>
